<svg xmlns="http://www.w3.org/2000/svg" viewBox="0 0 284.87 170.51"><defs><style>.cls-1{fill:#fff;}</style></defs><title>Asset 1</title><g id="Layer_2" data-name="Layer 2"><g id="Layer_1-2" data-name="Layer 1"><polygon class="cls-1" points="2.56 1.2 282.31 1.2 142.44 168.64 2.56 1.2"/><path d="M279.74,2.4,142.44,166.77,5.13,2.4H279.74M284.87,0H0L142.44,170.51,284.87,0Z"/><polygon class="cls-1" points="20.24 8.72 264.63 8.72 142.44 155.04 20.24 8.72"/><path d="M262.39,9.77l-120,143.64L22.48,9.77H262.39m4.48-2.1H18l124.44,149,124.44-149Z"/><polygon class="cls-1" points="40.72 15.58 244.36 15.58 142.54 146.12 40.72 15.58"/><path d="M242.51,16.48l-100,128.17L42.57,16.48H242.51m3.7-1.81H38.87L142.54,147.59,246.21,14.67Z"/></g></g></svg>